# xmcd
#
# Track frame offsets: 
#        182
#        19322
#        37805
#        55457
#        74242
#        89335
#        101890
#        120310
#        140480
#        156395
#        171957
#        187617
#
# Disc length: 2802 seconds
#
# Revision: 1
# Processed by: cddbd v1.5.2PL0 Copyright (c) Steve Scherf et al.
# Submitted via: ExactAudioCopy v1.0b1
#
DISCID=a70af00c
DTITLE=Hana Hegerova - Potmesily host
DYEAR=1988
DGENRE=Chanson
TTITLE0=Stin stiha stin
TTITLE1=Jinde
TTITLE2=Levandulova
TTITLE3=Gabriel
TTITLE4=Vsechno nejlepsi
TTITLE5=Vune
TTITLE6=Denim blue
TTITLE7=Zit a nechat zit
TTITLE8=Vana plna fialek
TTITLE9=Kolotoc
TTITLE10=Tata mel rad Maju Westovou
TTITLE11=Potmesily host
EXTD=
EXTT0=
EXTT1=
EXTT2=
EXTT3=
EXTT4=
EXTT5=
EXTT6=
EXTT7=
EXTT8=
EXTT9=
EXTT10=
EXTT11=
PLAYORDER=
